<svg xmlns="http://www.w3.org/2000/svg" xmlns:xlink="http://www.w3.org/1999/xlink" contentStyleType="text/css" data-diagram-type="DESCRIPTION" height="464px" preserveAspectRatio="none" style="width:1036px;height:464px;background:#FFFFFF;" version="1.1" viewBox="0 0 1036 464" width="1036px" zoomAndPan="magnify"><title>&#1044;&#1080;&#1072;&#1075;&#1088;&#1072;&#1084;&#1084;&#1072; &#1082;&#1086;&#1085;&#1090;&#1077;&#1081;&#1085;&#1077;&#1088;&#1086;&#1074; RAG-&#1073;&#1086;&#1090;&#1072; &#1089; &#1086;&#1073;&#1085;&#1086;&#1074;&#1083;&#1077;&#1085;&#1080;&#1077;&#1084; &#1073;&#1072;&#1079;&#1099; &#1079;&#1085;&#1072;&#1085;&#1080;&#1081;</title><defs/><g><g class="title" data-source-line="8"><text fill="#000000" font-family="Arial" font-size="14" font-weight="bold" lengthAdjust="spacing" textLength="443.9053" x="289.1727" y="23.1318">&#1044;&#1080;&#1072;&#1075;&#1088;&#1072;&#1084;&#1084;&#1072; &#1082;&#1086;&#1085;&#1090;&#1077;&#1081;&#1085;&#1077;&#1088;&#1086;&#1074; RAG-&#1073;&#1086;&#1090;&#1072; &#1089; &#1086;&#1073;&#1085;&#1086;&#1074;&#1083;&#1077;&#1085;&#1080;&#1077;&#1084; &#1073;&#1072;&#1079;&#1099; &#1079;&#1085;&#1072;&#1085;&#1080;&#1081;</text></g><!--cluster Docker Compose Network--><g class="cluster" data-entity="Docker Compose Network" data-source-line="10" data-uid="ent0002" id="cluster_Docker Compose Network"><path d="M8.5,43.0986 L183.7686,43.0986 A3.75,3.75 0 0 1 186.2686,45.5986 L193.2686,65.1973 L780.5,65.1973 A2.5,2.5 0 0 1 783,67.6973 L783,454.7886 A2.5,2.5 0 0 1 780.5,457.2886 L8.5,457.2886 A2.5,2.5 0 0 1 6,454.7886 L6,45.5986 A2.5,2.5 0 0 1 8.5,43.0986" fill="none" style="stroke:#000000;stroke-width:1.5;"/><line style="stroke:#000000;stroke-width:1.5;" x1="6" x2="193.2686" y1="65.1973" y2="65.1973"/><text fill="#000000" font-family="Arial" font-size="14" font-weight="bold" lengthAdjust="spacing" textLength="174.2686" x="10" y="58.2305">Docker Compose Network</text></g><!--cluster host--><g class="cluster" data-entity="host" data-source-line="12" data-uid="ent0003" id="cluster_host"><polygon fill="none" points="340,202.0486,350,192.0486,759,192.0486,759,308.2386,749,318.2386,340,318.2386,340,202.0486" style="stroke:#181818;stroke-width:1;"/><line style="stroke:#181818;stroke-width:1;" x1="749" x2="759" y1="202.0486" y2="192.0486"/><line style="stroke:#181818;stroke-width:1;" x1="340" x2="749" y1="202.0486" y2="202.0486"/><line style="stroke:#181818;stroke-width:1;" x1="749" x2="749" y1="202.0486" y2="318.2386"/><text fill="#000000" font-family="Arial" font-size="14" font-weight="bold" lengthAdjust="spacing" textLength="63.7793" x="513.6104" y="218.1805">Host / VM</text></g><!--entity bot--><g class="entity" data-entity="bot" data-source-line="20" data-uid="ent0007" id="entity_bot"><rect fill="#F1F1F1" height="52.1973" rx="2.5" ry="2.5" style="stroke:#181818;stroke-width:0.5;" width="133.5928" x="30.2" y="86.0986"/><text fill="#000000" font-family="Arial" font-size="14" font-style="italic" lengthAdjust="spacing" textLength="40.4824" x="76.7552" y="109.2305">&#171;App&#187;</text><text fill="#000000" font-family="Arial" font-size="14" lengthAdjust="spacing" textLength="113.5928" x="40.2" y="125.3291">tg-rag-sw-bot-safe</text></g><!--entity api--><g class="entity" data-entity="api" data-source-line="21" data-uid="ent0008" id="entity_api"><rect fill="#F1F1F1" height="52.1973" rx="2.5" ry="2.5" style="stroke:#181818;stroke-width:0.5;" width="94.7031" x="86.65" y="241.0486"/><text fill="#000000" font-family="Arial" font-size="14" font-style="italic" lengthAdjust="spacing" textLength="40.4824" x="113.7604" y="264.1805">&#171;App&#187;</text><text fill="#000000" font-family="Arial" font-size="14" lengthAdjust="spacing" textLength="74.7031" x="96.65" y="280.2791">rag-api-safe</text></g><!--entity upd--><g class="entity" data-entity="upd" data-source-line="22" data-uid="ent0009" id="entity_upd"><rect fill="#F1F1F1" height="52.1973" rx="2.5" ry="2.5" style="stroke:#181818;stroke-width:0.5;" width="111.8271" x="204.09" y="86.0986"/><text fill="#000000" font-family="Arial" font-size="14" font-style="italic" lengthAdjust="spacing" textLength="40.4824" x="239.7624" y="109.2305">&#171;App&#187;</text><text fill="#000000" font-family="Arial" font-size="14" lengthAdjust="spacing" textLength="91.8271" x="214.09" y="125.3291">rag-kb-updater</text></g><!--entity chroma--><g class="entity" data-entity="chroma" data-source-line="26" data-uid="ent0010" id="entity_chroma"><rect fill="#F1F1F1" height="68.2959" rx="2.5" ry="2.5" style="stroke:#181818;stroke-width:0.5;" width="143.6895" x="188.16" y="372.9886"/><text fill="#000000" font-family="Arial" font-size="14" font-style="italic" lengthAdjust="spacing" textLength="35.0205" x="242.4945" y="396.1205">&#171;DB&#187;</text><text fill="#000000" font-family="Arial" font-size="14" lengthAdjust="spacing" textLength="46.6826" x="198.16" y="412.2191">chroma</text><text fill="#000000" font-family="Arial" font-size="14" lengthAdjust="spacing" textLength="123.6895" x="198.16" y="428.3177">(ChromaDB Server)</text></g><!--entity kb--><g class="entity" data-entity="kb" data-source-line="13" data-uid="ent0004" id="entity_kb"><rect fill="#F1F1F1" height="55.1973" rx="2.5" ry="2.5" style="stroke:#181818;stroke-width:0.5;" width="142.8613" x="355.57" y="239.5486"/><polygon fill="#F1F1F1" points="481.4313,244.5486,481.4313,258.5486,493.4313,258.5486,493.4313,250.5486,487.4313,244.5486,481.4313,244.5486" style="stroke:#181818;stroke-width:0.5;"/><line style="stroke:#181818;stroke-width:0.5;" x1="487.4313" x2="487.4313" y1="244.5486" y2="250.5486"/><line style="stroke:#181818;stroke-width:0.5;" x1="493.4313" x2="487.4313" y1="250.5486" y2="250.5486"/><text fill="#000000" font-family="Arial" font-size="14" lengthAdjust="spacing" textLength="105.0752" x="365.57" y="265.6805">Knowledge Base</text><text fill="#000000" font-family="Arial" font-size="14" lengthAdjust="spacing" textLength="112.8613" x="365.57" y="281.7791">./knowledge_base</text></g><!--entity workVol--><g class="entity" data-entity="workVol" data-source-line="14" data-uid="ent0005" id="entity_workVol"><path d="M541.21,232.0486 L582.21,232.0486 A3.75,3.75 0 0 1 584.71,234.5486 L591.71,253.0486 L630.7891,253.0486 A2.5,2.5 0 0 1 633.2891,255.5486 L633.2891,299.7459 A2.5,2.5 0 0 1 630.7891,302.2459 L541.21,302.2459 A2.5,2.5 0 0 1 538.71,299.7459 L538.71,234.5486 A2.5,2.5 0 0 1 541.21,232.0486" fill="#F1F1F1" style="stroke:#181818;stroke-width:0.5;"/><line style="stroke:#181818;stroke-width:0.5;" x1="538.71" x2="591.71" y1="253.0486" y2="253.0486"/><text fill="#000000" font-family="Arial" font-size="14" lengthAdjust="spacing" textLength="50.5654" x="548.71" y="273.1805">Artifacts</text><text fill="#000000" font-family="Arial" font-size="14" lengthAdjust="spacing" textLength="64.5791" x="548.71" y="289.2791">./_artifacts</text></g><!--entity logsVol--><g class="entity" data-entity="logsVol" data-source-line="15" data-uid="ent0006" id="entity_logsVol"><path d="M675.5,232.0486 L716.5,232.0486 A3.75,3.75 0 0 1 719,234.5486 L726,253.0486 L740.5,253.0486 A2.5,2.5 0 0 1 743,255.5486 L743,299.7459 A2.5,2.5 0 0 1 740.5,302.2459 L675.5,302.2459 A2.5,2.5 0 0 1 673,299.7459 L673,234.5486 A2.5,2.5 0 0 1 675.5,232.0486" fill="#F1F1F1" style="stroke:#181818;stroke-width:0.5;"/><line style="stroke:#181818;stroke-width:0.5;" x1="673" x2="726" y1="253.0486" y2="253.0486"/><text fill="#000000" font-family="Arial" font-size="14" lengthAdjust="spacing" textLength="30.3584" x="683" y="273.1805">Logs</text><text fill="#000000" font-family="Arial" font-size="14" lengthAdjust="spacing" textLength="33.4619" x="683" y="289.2791">./logs</text></g><g class="entity" data-entity="GMN17" data-source-line="43" data-uid="ent0018" id="entity_GMN17"><path d="M798.74,372.2386 L798.74,403.2886 L332.17,407.2886 L798.74,411.2886 L798.74,442.0336 A0,0 0 0 0 798.74,442.0336 L1029.2507,442.0336 A0,0 0 0 0 1029.2507,442.0336 L1029.2507,382.2386 L1019.2507,372.2386 L798.74,372.2386 A0,0 0 0 0 798.74,372.2386" fill="#FEFFDD" style="stroke:#181818;stroke-width:0.5;"/><path d="M1019.2507,372.2386 L1019.2507,382.2386 L1029.2507,382.2386 L1019.2507,372.2386" fill="#FEFFDD" style="stroke:#181818;stroke-width:0.5;"/><text fill="#000000" font-family="Arial" font-size="13" lengthAdjust="spacing" textLength="147.3862" x="804.74" y="389.4325">Single ChromaDB server.</text><text fill="#000000" font-family="Arial" font-size="13" lengthAdjust="spacing" textLength="209.5107" x="804.74" y="404.3812">Accessed via Chroma HTTP API by:</text><text fill="#000000" font-family="Arial" font-size="13" lengthAdjust="spacing" textLength="122.0972" x="804.74" y="419.3299">- rag-api-safe (query)</text><text fill="#000000" font-family="Arial" font-size="13" lengthAdjust="spacing" textLength="187.8652" x="804.74" y="434.2787">- rag-kb-updater (delete / upsert)</text></g><g class="entity" data-entity="GMN20" data-source-line="50" data-uid="ent0021" id="entity_GMN20"><path d="M798.84,62.3486 L798.84,99.2886 L316.3,103.2886 L798.84,107.2886 L798.84,162.041 A0,0 0 0 0 798.84,162.041 L1009.1525,162.041 A0,0 0 0 0 1009.1525,162.041 L1009.1525,72.3486 L999.1525,62.3486 L798.84,62.3486 A0,0 0 0 0 798.84,62.3486" fill="#FEFFDD" style="stroke:#181818;stroke-width:0.5;"/><path d="M999.1525,62.3486 L999.1525,72.3486 L1009.1525,72.3486 L999.1525,62.3486" fill="#FEFFDD" style="stroke:#181818;stroke-width:0.5;"/><text fill="#000000" font-family="Arial" font-size="13" lengthAdjust="spacing" textLength="189.3125" x="804.84" y="79.5425">Updater runs by schedule (cron).</text><text fill="#000000" font-family="Arial" font-size="13" lengthAdjust="spacing" textLength="109.1353" x="804.84" y="94.4912">Index update logic:</text><text fill="#000000" font-family="Arial" font-size="13" lengthAdjust="spacing" textLength="116.3462" x="804.84" y="109.4399">- detect file changes</text><text fill="#000000" font-family="Arial" font-size="13" lengthAdjust="spacing" textLength="91.749" x="804.84" y="124.3887">- rewrite chunks</text><text fill="#000000" font-family="Arial" font-size="13" lengthAdjust="spacing" textLength="124.2998" x="804.84" y="139.3374">- delete by rel_doc_id</text><text fill="#000000" font-family="Arial" font-size="13" lengthAdjust="spacing" textLength="146.7007" x="804.84" y="154.2861">- upsert by embedding_id</text></g><!--link bot to api--><g class="link" data-entity-1="bot" data-entity-2="api" data-source-line="31" data-uid="lnk11" id="link_bot_api"><path d="M125.22,138.4886 C125.22,166.9786 125.22,206.1886 125.22,234.7286" fill="none" id="bot-to-api" style="stroke:#181818;stroke-width:1;"/><polygon fill="#181818" points="125.22,240.7286,129.22,231.7286,125.22,235.7286,121.22,231.7286,125.22,240.7286" style="stroke:#181818;stroke-width:1;"/><text fill="#000000" font-family="Arial" font-size="13" lengthAdjust="spacing" textLength="101.8608" x="23.22" y="186.8025">HTTP (questions)</text></g><!--link api to chroma--><g class="link" data-entity-1="api" data-entity-2="chroma" data-source-line="33" data-uid="lnk12" id="link_api_chroma"><path d="M181.71,276.2886 C190.05,276.2886 196.12,276.2886 196.12,276.2886 C196.12,276.2886 196.12,327.9886 196.12,366.7586" fill="none" id="api-to-chroma" style="stroke:#181818;stroke-width:1;"/><polygon fill="#181818" points="196.12,372.7586,200.12,363.7586,196.12,367.7586,192.12,363.7586,196.12,372.7586" style="stroke:#181818;stroke-width:1;"/><text fill="#000000" font-family="Arial" font-size="13" lengthAdjust="spacing" textLength="115.5908" x="80.12" y="314.5125">query (Chroma API)</text></g><!--link upd to kb--><g class="link" data-entity-1="upd" data-entity-2="kb" data-source-line="35" data-uid="lnk13" id="link_upd_kb"><path d="M260,138.6586 C260,180.7586 260,258.2886 260,258.2886 C260,258.2886 303.95,258.2886 349.21,258.2886" fill="none" id="upd-to-kb" style="stroke:#181818;stroke-width:1;"/><polygon fill="#181818" points="355.21,258.2886,346.21,254.2886,350.21,258.2886,346.21,262.2886,355.21,258.2886" style="stroke:#181818;stroke-width:1;"/><text fill="#000000" font-family="Arial" font-size="13" lengthAdjust="spacing" textLength="52.749" x="207" y="243.2725">read files</text></g><!--link upd to workVol--><g class="link" data-entity-1="upd" data-entity-2="workVol" data-source-line="36" data-uid="lnk14" id="link_upd_workVol"><path d="M287.96,138.5186 C287.96,174.9386 287.96,236.2886 287.96,236.2886 C287.96,236.2886 448.3,236.2886 532.44,236.2886" fill="none" id="upd-to-workVol" style="stroke:#181818;stroke-width:1;"/><polygon fill="#181818" points="538.44,236.2886,529.44,232.2886,533.44,236.2886,529.44,240.2886,538.44,236.2886" style="stroke:#181818;stroke-width:1;"/><text fill="#000000" font-family="Arial" font-size="13" lengthAdjust="spacing" textLength="105.1362" x="365.31" y="233.4825">chunks + manifest</text></g><!--link upd to chroma--><g class="link" data-entity-1="upd" data-entity-2="chroma" data-source-line="37" data-uid="lnk15" id="link_upd_chroma"><path d="M232.04,138.6286 C232.04,192.0786 232.04,306.9586 232.04,366.5786" fill="none" id="upd-to-chroma" style="stroke:#181818;stroke-width:1;"/><polygon fill="#181818" points="232.04,372.5786,236.04,363.5786,232.04,367.5786,228.04,363.5786,232.04,372.5786" style="stroke:#181818;stroke-width:1;"/><text fill="#000000" font-family="Arial" font-size="13" lengthAdjust="spacing" textLength="46.6235" x="267.5236" y="268.8025">delete +</text><text fill="#000000" font-family="Arial" font-size="13" lengthAdjust="spacing" textLength="119.2026" x="233.04" y="283.7512">upsert (Chroma API)</text></g><!--link upd to logsVol--><g class="link" data-entity-1="upd" data-entity-2="logsVol" data-source-line="38" data-uid="lnk16" id="link_upd_logsVol"><path d="M316.29,121.2886 C436.61,121.2886 708,121.2886 708,121.2886 C708,121.2886 708,182.6686 708,225.8386" fill="none" id="upd-to-logsVol" style="stroke:#181818;stroke-width:1;"/><polygon fill="#181818" points="708,231.8386,712,222.8386,708,226.8386,704,222.8386,708,231.8386" style="stroke:#181818;stroke-width:1;"/><text fill="#000000" font-family="Arial" font-size="13" lengthAdjust="spacing" textLength="151.3599" x="415.42" y="118.4825">logs + jsonl runs summary</text></g><!--SRC=[VLDTJnD157sVNt7J5zgO1HvCJ8WXAH25g8G8yaJIJ7TkstMtC-lCbDeG4z7uO3JXnHzID4XHMl_2x3_opknI2Z66fCoSS-x7kNFNf8dCkUPzC3qkr32HNUZmp20pSoPM_Ln9b7RVZZ84ZR7bifijIh94eXtb24hRdbeW17Ru8BDFbBIxl8_Gr0dF5dZDPMemXqUh2w1K0ZtuS9KncrYgwRwvYHkx7yLx-hsclp6uNsxcfiK7T-6ktDHT43Lpt-5bysdapjsCY34Kfq3WET54kTyadLAU2tSD18xTPV45t2LXuu1VCPRpEELTXDgMYbFKiEcj6uHTj4EbqngSC0QXFwXjAsDX1GvVr80RwFdR2P40NDkamsCBjMTI3JCKb7236poIoolf3T9g4n8YqtQ8wgXCKCLQiuesNjwwoMM2rFTmgB8x-kUg6wGP_GyYVoX5xtopIr1yB6VZxHTVmVsXwuIcCNC_gubSaSwgBjeUPInDp5yPQhORQTwDp31gAniPtYdxfWiyVjpCy_Nr-n5UplFaLakN_sdJTZJ81RUeWvhE2-f_koW-XLsO1YUJuhCRipjfuvvMVNuawvlXiBK1-wYFKJT2XPAb8biRL8CgB44KHJIQi3Wpsgs91nZp9gDeFHXOW-s3WpselncWiOcIfi6OnprV9Lm38lK8gghGtDiXaVVZHMcR11gvW4wIePdZrRCI6VS6z3t00-XpcNIep5mpBo0mGuiaEPA3tA2sTulTwAije01_8lbhesG6UY0Dc46_p_NeZkkpujH_HNwWnLdfNIggevDkpuBgL0sm_IJCTpvL4wQwp9fnZCQWWEE4LsmvBkeAsgCr5i7YLeGfwb6ZWcyN0EgLmHKexJKOIW6-b_iTKGHxLKK5N-qHcBY7Oa0DrcEjP6EPxKY1Rw5CxaUHnBuLGHNe0_NFGCPePUWrg1CSwiHYzGf15bgXl1gpbb1nAn44LtCd6Fjj5896uebvdty1]--></g></svg>